<?xml version="1.0" encoding="UTF-8"?><!DOCTYPE svg PUBLIC "-//W3C//DTD SVG 1.1//EN" "http://www.w3.org/Graphics/SVG/1.1/DTD/svg11.dtd"><svg class="db" viewBox="0 0 24 24"><path transform="scale(.046875) scale(1,-1) translate(0,-512)" d="M256 224v64h21v-64h-21zM309 224v64q0 14 -9.5 23t-22.5 9h-53v-128h53q13 0 22.5 9t9.5 23zM416 288v32h-85v-128h32v43h32v32h-32v21h53zM203 267v21q0 14 -9.5 23t-22.5 9h-54v-128h32v43h22q13 0 22.5 9.5t9.5 22.5zM405 448q17 0 30 -13t13 -30v-298q0 -17 -13 -30t-30 -13h-298q-17 0 -30 13t-13 30v298q0 17 13 30t30 13h298zM149 267v21h22v-21h-22z"></path></svg>